# xmcd CD database file
#
# Track frame offsets:
#	150
#	25500
#	44777
#	67528
#
# Disc length: 1275 seconds
#
# Revision: 0
# Processed by: cddbd v1.5.1PL2 Copyright (c) Steve Scherf et al.
# Submitted via: CDex 1.51
#
DISCID=2704f904
DTITLE=CuBiC - from far EAST
DYEAR=2005
DGENRE=Electronica/Dance
TTITLE0=REBEL SESSION
TTITLE1=NO DRUG LET'S ROCK
TTITLE2=SET THE FIRE MERRY GO ROUND
TTITLE3=REBEL SESSION(CLUB MIX)
EXTD=YEAR: 2005.09.07
EXTT0=
EXTT1=
EXTT2=
EXTT3=
PLAYORDER=
